<?xml version="1.0" encoding="UTF-8" standalone="no"?>
<!-- Generator: Gravit.io -->

<svg
   xmlns:dc="http://purl.org/dc/elements/1.1/"
   xmlns:cc="http://creativecommons.org/ns#"
   xmlns:rdf="http://www.w3.org/1999/02/22-rdf-syntax-ns#"
   xmlns:svg="http://www.w3.org/2000/svg"
   xmlns="http://www.w3.org/2000/svg"
   xmlns:sodipodi="http://sodipodi.sourceforge.net/DTD/sodipodi-0.dtd"
   xmlns:inkscape="http://www.inkscape.org/namespaces/inkscape"
   style="isolation:isolate"
   viewBox="473 502 327 390"
   width="327"
   height="390"
   version="1.1"
   id="svg4"
   sodipodi:docname="readable_icon.svg"
   inkscape:version="0.92.1 r15371">
  <metadata
     id="metadata10">
    <rdf:RDF>
      <cc:Work
         rdf:about="">
        <dc:format>image/svg+xml</dc:format>
        <dc:type
           rdf:resource="http://purl.org/dc/dcmitype/StillImage" />
      </cc:Work>
    </rdf:RDF>
  </metadata>
  <defs
     id="defs8" />
  <sodipodi:namedview
     pagecolor="#ffffff"
     bordercolor="#666666"
     borderopacity="1"
     objecttolerance="10"
     gridtolerance="10"
     guidetolerance="10"
     inkscape:pageopacity="0"
     inkscape:pageshadow="2"
     inkscape:window-width="1366"
     inkscape:window-height="705"
     id="namedview6"
     showgrid="false"
     inkscape:zoom="0.60512821"
     inkscape:cx="-81.076271"
     inkscape:cy="195"
     inkscape:window-x="-8"
     inkscape:window-y="-8"
     inkscape:window-maximized="1"
     inkscape:current-layer="svg4" />
  <path
     d=" M 636.5 502 C 587.45 502 547.318 545.875 547.318 599.5 C 547.318 630.993 561.305 658.845 582.619 676.688 C 558.689 688.111 538.905 707.481 524.562 731.531 C 511.958 736.244 502.43 749.748 504.585 765.559 L 504.124 765.559 L 507.84 796.028 C 488.101 801.033 473 820.273 473 843.25 C 473 869.981 493.14 892 517.591 892 L 755.409 892 C 779.86 892 800 869.981 800 843.25 C 800 819.525 783.977 799.7 763.302 795.508 L 767.018 766.063 L 767.018 765.559 C 769.054 750.706 760.805 737.999 749.374 732.539 C 735.031 708.684 714.772 689.07 690.381 677.191 C 712.605 658.747 725.665 630.005 725.682 599.5 C 725.682 545.875 685.55 502 636.5 502 Z  M 636.5 534.5 C 669.542 534.5 695.955 563.376 695.955 599.5 C 695.955 635.624 669.542 664.5 636.5 664.5 C 603.458 664.5 577.045 635.624 577.045 599.5 C 577.045 563.376 603.458 534.5 636.5 534.5 Z  M 636.5 697 C 664.592 697 690.158 709.691 708.96 729.5 L 563.103 729.5 C 581.98 708.993 607.754 697 636.5 697 Z  M 533.852 762 L 737.766 762 L 725.682 858.996 L 725.682 859.5 L 545.921 859.5 C 546.099 859.5 545.921 859.061 545.921 858.996 L 533.852 762 Z  M 710.818 778.25 C 702.643 778.25 695.955 785.563 695.955 794.5 C 695.955 803.438 702.643 810.75 710.818 810.75 C 718.993 810.75 725.682 803.438 725.682 794.5 C 725.682 785.563 718.993 778.25 710.818 778.25 Z  M 759.586 828.024 C 765.68 830.055 770.273 835.889 770.273 843.25 C 770.273 852.269 763.658 859.5 755.409 859.5 L 759.586 828.024 Z  M 512.017 828.511 L 515.733 858.996 C 508.48 857.908 502.727 851.505 502.727 843.25 C 502.727 836.523 506.681 830.998 512.017 828.528 L 512.017 828.511 Z "
     fill="rgb(0,0,0)"
     id="path2"
     style="fill:#aa0000" />
</svg>
